<svg width="339" height="365" viewBox="0 0 339 365" fill="none" xmlns="http://www.w3.org/2000/svg">
<g id="estante">
<path id="Vector" d="M338.027 218.808H0.905518V228.697H338.027V218.808Z" fill="#E6E6E6"/>
<path id="Vector_2" d="M114.178 136.101H28.7742V221.505H114.178V136.101Z" fill="#E6E6E6"/>
<path id="Vector_3" d="M97.0975 153.182H45.855V204.424H97.0975V153.182Z" fill="#CCCCCC"/>
<path id="Vector_4" d="M241.835 136.101H220.259V221.505H241.835V136.101Z" fill="#E6E6E6"/>
<path id="Vector_5" d="M241.835 149.586H220.259V159.474H241.835V149.586Z" fill="#CCCCCC"/>
<path id="Vector_6" d="M241.835 192.737H220.259V202.626H241.835V192.737Z" fill="#CCCCCC"/>
<path id="Vector_7" d="M208.572 136.101H186.997V221.505H208.572V136.101Z" fill="#E6E6E6"/>
<path id="Vector_8" d="M208.572 149.586H186.997V159.474H208.572V149.586Z" fill="#CCCCCC"/>
<path id="Vector_9" d="M208.572 192.737H186.997V202.626H208.572V192.737Z" fill="#CCCCCC"/>
<path id="Vector_10" d="M260.425 135.748L241.089 145.321L278.982 221.858L298.318 212.285L260.425 135.748Z" fill="#E6E6E6"/>
<path id="Vector_11" d="M266.408 147.832L247.072 157.405L251.46 166.268L270.796 156.695L266.408 147.832Z" fill="#CCCCCC"/>
<path id="Vector_12" d="M285.554 186.504L266.218 196.077L270.606 204.939L289.942 195.366L285.554 186.504Z" fill="#CCCCCC"/>
<path id="Vector_13" d="M60.688 170.382L71.554 189.201L82.419 208.02H60.688H38.958L49.823 189.201L60.688 170.382Z" fill="#E6E6E6"/>
<path id="Vector_14" d="M79.567 173.978L90.432 192.797L101.298 211.616H79.567H57.837L68.702 192.797L79.567 173.978Z" fill="#E6E6E6"/>
<path id="Vector_15" d="M87.2086 168.464C90.6841 168.464 93.5015 165.647 93.5015 162.171C93.5015 158.696 90.6841 155.879 87.2086 155.879C83.7331 155.879 80.9156 158.696 80.9156 162.171C80.9156 165.647 83.7331 168.464 87.2086 168.464Z" fill="#E6E6E6"/>
<path id="Vector_16" d="M0.905518 92.9492L338.027 92.9492V83.0603L0.905518 83.0603V92.9492Z" fill="#E6E6E6"/>
<path id="Vector_17" d="M224.754 85.7573L310.158 85.7573V0.353165L224.754 0.353165V85.7573Z" fill="#E6E6E6"/>
<path id="Vector_18" d="M241.835 68.6765H293.077V17.434L241.835 17.434V68.6765Z" fill="#CCCCCC"/>
<path id="Vector_19" d="M97.0975 85.7573H118.673L118.673 0.353165H97.0975L97.0975 85.7573Z" fill="#E6E6E6"/>
<path id="Vector_20" d="M97.0975 23.7269L118.673 23.7269V13.838L97.0975 13.838V23.7269Z" fill="#CCCCCC"/>
<path id="Vector_21" d="M97.0975 66.8784H118.673V56.9895H97.0975V66.8784Z" fill="#CCCCCC"/>
<path id="Vector_22" d="M130.36 85.7573H151.936V0.353165H130.36V85.7573Z" fill="#E6E6E6"/>
<path id="Vector_23" d="M130.36 23.7269L151.936 23.7269V13.838L130.36 13.838V23.7269Z" fill="#CCCCCC"/>
<path id="Vector_24" d="M130.36 66.8784H151.936V56.9895H130.36V66.8784Z" fill="#CCCCCC"/>
<path id="Vector_25" d="M40.6144 76.5375L59.9501 86.1104L97.8431 9.57297L78.5074 1.28421e-05L40.6144 76.5375Z" fill="#E6E6E6"/>
<path id="Vector_26" d="M68.1367 20.9471L87.4724 30.5201L91.86 21.6578L72.5243 12.0849L68.1367 20.9471Z" fill="#CCCCCC"/>
<path id="Vector_27" d="M48.9907 59.6187L68.3265 69.1917L72.7141 60.3294L53.3783 50.7565L48.9907 59.6187Z" fill="#CCCCCC"/>
<path id="Vector_28" d="M278.244 34.634L267.379 53.453L256.514 72.272H278.244H299.975L289.109 53.453L278.244 34.634Z" fill="#E6E6E6"/>
<path id="Vector_29" d="M259.365 38.23L248.5 57.049L237.635 75.868H259.365H281.096L270.231 57.049L259.365 38.23Z" fill="#E6E6E6"/>
<path id="Vector_30" d="M251.724 32.7168C255.199 32.7168 258.017 29.8994 258.017 26.4239C258.017 22.9484 255.199 20.131 251.724 20.131C248.248 20.131 245.431 22.9484 245.431 26.4239C245.431 29.8994 248.248 32.7168 251.724 32.7168Z" fill="#E6E6E6"/>
<path id="Vector_31" d="M0.905518 364.444L338.027 364.444V354.555L0.905518 354.555V364.444Z" fill="#E6E6E6"/>
<path id="Vector_32" d="M224.754 357.252H310.158V271.848H224.754V357.252Z" fill="#E6E6E6"/>
<path id="Vector_33" d="M241.835 340.172H293.077V288.929H241.835V340.172Z" fill="#CCCCCC"/>
<path id="Vector_34" d="M97.0975 357.252H118.673L118.673 271.848H97.0975L97.0975 357.252Z" fill="#E6E6E6"/>
<path id="Vector_35" d="M97.0975 295.222H118.673V285.333H97.0975V295.222Z" fill="#CCCCCC"/>
<path id="Vector_36" d="M97.0975 338.374H118.673V328.485H97.0975V338.374Z" fill="#CCCCCC"/>
<path id="Vector_37" d="M130.36 357.252H151.936V271.848H130.36V357.252Z" fill="#E6E6E6"/>
<path id="Vector_38" d="M130.36 295.222H151.936V285.333H130.36V295.222Z" fill="#CCCCCC"/>
<path id="Vector_39" d="M130.36 338.374H151.936V328.485H130.36V338.374Z" fill="#CCCCCC"/>
<path id="Vector_40" d="M40.6144 348.033L59.9501 357.606L97.8431 281.068L78.5074 271.495L40.6144 348.033Z" fill="#E6E6E6"/>
<path id="Vector_41" d="M68.1367 292.442L87.4724 302.015L91.86 293.153L72.5243 283.58L68.1367 292.442Z" fill="#CCCCCC"/>
<path id="Vector_42" d="M48.9907 331.114L68.3265 340.687L72.7141 331.825L53.3783 322.252L48.9907 331.114Z" fill="#CCCCCC"/>
<path id="Vector_43" d="M278.244 306.129L267.379 324.948L256.514 343.768H278.244H299.975L289.109 324.948L278.244 306.129Z" fill="#E6E6E6"/>
<path id="Vector_44" d="M259.365 309.725L248.5 328.544L237.635 347.364H259.365H281.096L270.231 328.544L259.365 309.725Z" fill="#E6E6E6"/>
<path id="Vector_45" d="M251.724 304.212C255.199 304.212 258.017 301.395 258.017 297.919C258.017 294.444 255.199 291.626 251.724 291.626C248.248 291.626 245.431 294.444 245.431 297.919C245.431 301.395 248.248 304.212 251.724 304.212Z" fill="#E6E6E6"/>
</g>
</svg>
