<svg width="795" height="326" viewBox="0 0 795 326" fill="none" xmlns="http://www.w3.org/2000/svg">
<g id="nao-animado">
<path id="Vector" d="M397.129 325.916C616.458 325.916 794.259 313.288 794.259 297.711C794.259 282.134 616.458 269.506 397.129 269.506C177.801 269.506 0 282.134 0 297.711C0 313.288 177.801 325.916 397.129 325.916Z" fill="#E6E6E6"/>
<path id="Vector_2" d="M707.387 313.506C642.632 301.981 571.819 303.897 497.54 313.506C531.395 284.925 560.615 256.343 526.759 227.762C592.798 241.386 602.048 240.007 675.511 227.762C658.472 256.343 690.348 284.925 707.387 313.506Z" fill="#F9A826"/>
<path id="Vector_3" opacity="0.2" d="M707.387 313.506C642.632 301.981 571.819 303.897 497.54 313.506C531.395 284.925 560.615 256.343 526.759 227.762C592.798 241.386 602.048 240.007 675.511 227.762C658.472 256.343 690.348 284.925 707.387 313.506Z" fill="black"/>
<path id="Vector_4" d="M691.592 301.312C636.585 292.113 576.432 293.642 513.335 301.312C542.094 278.498 566.915 255.684 538.156 232.87C594.253 243.745 602.111 242.644 664.515 232.87C650.041 255.684 677.118 278.498 691.592 301.312Z" fill="#F9A826"/>
<path id="Vector_5" d="M670.64 264.553C686.827 264.553 699.949 251.431 699.949 235.244C699.949 219.057 686.827 205.935 670.64 205.935C654.453 205.935 641.331 219.057 641.331 235.244C641.331 251.431 654.453 264.553 670.64 264.553Z" fill="#2F2E41"/>
<path id="Vector_6" d="M537.591 201.249L557.899 204.634L568.053 233.967L538.72 252.019L504.873 201.249H536.463H537.591Z" fill="#A0616A"/>
<path id="Vector_7" d="M595.13 246.378C621.3 246.378 642.515 225.163 642.515 198.993C642.515 172.823 621.3 151.608 595.13 151.608C568.96 151.608 547.745 172.823 547.745 198.993C547.745 225.163 568.96 246.378 595.13 246.378Z" fill="#A0616A"/>
<path id="Vector_8" d="M333.386 26.3769C333.386 26.3769 218.308 38.7872 198.001 36.5308C177.693 34.2744 168.667 32.018 168.667 32.018C168.667 32.018 155.129 50.0693 161.898 57.9668C165.689 62.5176 170.277 66.3405 175.436 69.2489C175.436 69.2489 187.847 65.8642 196.872 69.2489C205.898 72.6335 297.283 87.3002 313.078 73.7617C328.873 60.2232 333.386 26.3769 333.386 26.3769Z" fill="#2F2E41"/>
<path id="Vector_9" d="M341.283 277.967C341.283 277.967 265.693 256.531 252.155 161.762V152.736C252.155 152.736 237.198 178.975 231.847 184.326C225.642 190.531 203.642 246.378 204.77 252.019C205.898 257.66 204.77 259.916 204.77 259.916L172.052 256.532V246.378C172.052 246.378 189.539 193.916 190.667 181.506C191.795 169.095 234.103 82.7874 234.103 82.7874C234.103 82.7874 249.898 50.0693 276.975 82.7874C304.052 115.505 306.309 138.07 306.309 138.07L341.283 205.762L341.283 277.967Z" fill="#2F2E41"/>
<path id="Vector_10" d="M176.416 239.717L147.272 253.95C147.272 253.95 112.028 259.372 131.683 269.538C151.338 279.705 205.56 290.549 208.271 281.06C210.982 271.572 209.906 255.824 207.055 256.243C204.204 256.661 184.549 258.694 176.416 239.717Z" fill="#2F2E41"/>
<path id="Vector_11" d="M326.616 203.506C326.616 203.506 311.95 266.685 336.77 280.224C361.591 293.762 535.335 296.019 548.873 271.198C562.412 246.378 555.643 246.378 555.643 246.378L519.54 205.762L548.873 203.506C548.873 203.506 548.873 194.48 538.72 193.352C528.566 192.224 496.976 180.941 469.899 188.839C442.822 196.736 427.027 173.044 427.027 173.044L326.616 203.506Z" fill="#575A89"/>
<path id="Vector_12" d="M307.437 6.069L288.257 110.993L420.258 95.198L443.95 0.428009L307.437 6.069Z" fill="#3F3D56"/>
<path id="Vector_13" d="M311.386 10.018L295.591 103.659L415.745 89.557L438.873 4.37701L311.386 10.018Z" fill="white"/>
<path id="Vector_14" d="M292.77 112.121L288.257 110.993L286.001 115.505L322.104 215.916L325.499 214.618L326.616 208.019L292.77 112.121Z" fill="#B3B3B3"/>
<path id="Vector_15" d="M288.257 109.864L324.36 214.788L460.873 194.48L420.258 95.198L288.257 109.864Z" fill="#D0CDE1"/>
<path id="Vector_16" d="M306.309 106.48V112.121L406.719 100.839L405.591 95.198L306.309 106.48Z" fill="#3F3D56"/>
<path id="Vector_17" d="M308.565 117.762L324.36 161.762L427.027 149.352L408.976 107.608L308.565 117.762Z" fill="#3F3D56"/>
<path id="Vector_18" d="M378.514 180.942C378.514 180.942 349.181 176.429 348.052 183.198C346.924 189.967 341.283 291.506 369.488 294.891C397.694 298.275 537.591 312.942 522.925 277.967C508.258 242.993 485.694 247.506 485.694 247.506L389.796 257.66L378.514 180.942Z" fill="#575A89"/>
<path id="Vector_19" d="M467.078 193.916L437.181 173.044L417.437 188.275L442.258 215.352L467.078 193.916Z" fill="#575A89"/>
<path id="Vector_20" opacity="0.2" d="M386.976 214.224L391.488 257.096L469.335 252.583L401.642 251.455L386.976 214.224Z" fill="black"/>
<path id="Vector_21" d="M618.521 264.013C649.675 264.013 674.931 238.757 674.931 207.603C674.931 176.448 649.675 151.192 618.521 151.192C587.366 151.192 562.11 176.448 562.11 207.603C562.11 238.757 587.366 264.013 618.521 264.013Z" fill="#2F2E41"/>
</g>
</svg>
